<svg width="212" height="185" viewBox="0 0 212 185" fill="none" xmlns="http://www.w3.org/2000/svg">
<path d="M152.013 0.529984C175.5 0.529984 192.573 5.94998 203.232 16.79C209.194 23.1133 211.814 30.5207 211.091 39.012C210.368 47.3227 207.658 54.0977 202.961 59.337C198.264 64.3957 192.844 68.1897 186.701 70.719C180.739 73.0677 174.867 75.326 169.086 77.494C155.897 82.7333 150.568 90.9537 153.097 102.155H148.49C137.108 95.651 132.049 87.25 133.314 76.952C133.856 72.4353 135.934 68.28 139.547 64.486C143.16 60.5113 146.954 57.3497 150.929 55.001C154.904 52.6523 158.698 49.7617 162.311 46.329C166.105 42.7157 168.454 39.012 169.357 35.218C171.525 25.8233 170.17 18.958 165.292 14.622C160.414 10.1053 154.633 7.84699 147.948 7.84699C141.263 7.84699 134.85 9.11165 128.707 11.641C122.564 14.1703 119.493 16.6093 119.493 18.958C119.493 21.126 120.396 23.023 122.203 24.649C124.01 26.0943 125.997 27.2687 128.165 28.172C130.333 29.0753 132.32 30.7917 134.127 33.321C135.934 35.8503 136.837 39.1927 136.837 43.348C136.837 47.3227 135.121 50.936 131.688 54.188C128.255 57.44 124.01 59.066 118.951 59.066C113.892 59.066 109.376 56.9883 105.401 52.833C101.607 48.6777 99.71 43.5287 99.71 37.386C99.71 27.088 104.498 18.416 114.073 11.37C123.829 4.14332 136.476 0.529984 152.013 0.529984ZM151.742 160.691C144.877 160.691 139.005 158.252 134.127 153.374C129.249 148.496 126.81 142.624 126.81 135.759C126.81 128.713 129.249 122.751 134.127 117.873C139.005 112.995 144.064 109 150.929 109C157.975 109 164.75 112.995 169.628 117.873C174.506 122.751 176.945 128.713 176.945 135.759C176.945 142.624 174.506 148.496 169.628 153.374C164.75 158.252 158.788 160.691 151.742 160.691Z" fill="#FFDF39"/>
<path d="M4.644 86.488L1.188 69.802C1.098 69.406 1.179 69.055 1.431 68.749C1.701 68.443 2.034 68.29 2.43 68.29H3.213C3.663 68.29 4.05 68.434 4.374 68.722C4.698 69.01 4.896 69.37 4.968 69.802L7.209 84.004C7.209 84.022 7.218 84.031 7.236 84.031C7.272 84.031 7.29 84.022 7.29 84.004L9.45 69.802C9.522 69.37 9.72 69.01 10.044 68.722C10.368 68.434 10.755 68.29 11.205 68.29H12.825C13.275 68.29 13.662 68.434 13.986 68.722C14.31 69.01 14.508 69.37 14.58 69.802L16.767 84.004C16.767 84.022 16.776 84.031 16.794 84.031C16.812 84.031 16.821 84.022 16.821 84.004L19.062 69.802C19.134 69.37 19.332 69.01 19.656 68.722C19.98 68.434 20.367 68.29 20.817 68.29H21.492C21.888 68.29 22.212 68.443 22.464 68.749C22.716 69.055 22.806 69.406 22.734 69.802L19.278 86.488C19.188 86.92 18.972 87.28 18.63 87.568C18.288 87.856 17.892 88 17.442 88H16.011C15.561 88 15.165 87.856 14.823 87.568C14.499 87.28 14.301 86.92 14.229 86.488L11.988 72.286C11.988 72.268 11.979 72.259 11.961 72.259C11.943 72.259 11.934 72.268 11.934 72.286L9.693 86.488C9.621 86.92 9.414 87.28 9.072 87.568C8.748 87.856 8.361 88 7.911 88H6.48C6.03 88 5.634 87.856 5.292 87.568C4.95 87.28 4.734 86.92 4.644 86.488ZM27.2141 88C26.8001 88 26.4401 87.847 26.1341 87.541C25.8461 87.235 25.7021 86.875 25.7021 86.461V69.289C25.7021 68.875 25.8461 68.515 26.1341 68.209C26.4401 67.903 26.8001 67.75 27.2141 67.75H27.7541C28.1681 67.75 28.5281 67.903 28.8341 68.209C29.1401 68.515 29.2931 68.875 29.2931 69.289V75.553C29.2931 75.571 29.3021 75.58 29.3201 75.58C29.3381 75.58 29.3561 75.571 29.3741 75.553C30.6341 74.311 32.0201 73.69 33.5321 73.69C35.1701 73.69 36.3581 74.158 37.0961 75.094C37.8341 76.03 38.2031 77.632 38.2031 79.9V86.461C38.2031 86.875 38.0501 87.235 37.7441 87.541C37.4381 87.847 37.0781 88 36.6641 88H36.2321C35.8181 88 35.4581 87.847 35.1521 87.541C34.8461 87.235 34.6931 86.875 34.6931 86.461V80.44C34.6931 78.874 34.5221 77.839 34.1801 77.335C33.8561 76.831 33.2351 76.579 32.3171 76.579C31.5971 76.579 30.9131 76.903 30.2651 77.551C29.6171 78.199 29.2931 78.892 29.2931 79.63V86.461C29.2931 86.875 29.1401 87.235 28.8341 87.541C28.5281 87.847 28.1681 88 27.7541 88H27.2141ZM47.5069 76.201C46.5889 76.201 45.8779 76.462 45.3739 76.984C44.8879 77.488 44.5819 78.307 44.4559 79.441C44.4559 79.585 44.5279 79.657 44.6719 79.657H49.9639C50.1079 79.657 50.1799 79.585 50.1799 79.441C50.1079 77.281 49.2169 76.201 47.5069 76.201ZM48.1819 88.27C45.8239 88.27 44.0059 87.658 42.7279 86.434C41.4679 85.192 40.8379 83.374 40.8379 80.98C40.8379 78.604 41.4049 76.795 42.5389 75.553C43.6729 74.311 45.3109 73.69 47.4529 73.69C51.4489 73.69 53.5009 75.958 53.6089 80.494C53.6269 80.926 53.4739 81.286 53.1499 81.574C52.8259 81.862 52.4479 82.006 52.0159 82.006H44.6449C44.4829 82.006 44.4199 82.087 44.4559 82.249C44.5819 83.455 44.9779 84.337 45.6439 84.895C46.3279 85.435 47.3179 85.705 48.6139 85.705C49.4239 85.705 50.3239 85.57 51.3139 85.3C51.6379 85.21 51.9349 85.264 52.2049 85.462C52.4929 85.66 52.6369 85.93 52.6369 86.272C52.6369 86.686 52.5109 87.055 52.2589 87.379C52.0249 87.685 51.7099 87.874 51.3139 87.946C50.3059 88.162 49.2619 88.27 48.1819 88.27ZM58.0612 88C57.6472 88 57.2872 87.847 56.9812 87.541C56.6752 87.235 56.5222 86.875 56.5222 86.461V75.499C56.5222 75.085 56.6752 74.725 56.9812 74.419C57.2872 74.113 57.6472 73.96 58.0612 73.96H58.6012C59.0152 73.96 59.3752 74.113 59.6812 74.419C59.9872 74.725 60.1402 75.085 60.1402 75.499V76.633C60.1402 76.651 60.1492 76.66 60.1672 76.66C60.2032 76.66 60.2212 76.651 60.2212 76.633C60.7432 75.913 61.4272 75.328 62.2732 74.878C63.1192 74.41 64.0462 74.122 65.0542 74.014C65.4322 73.978 65.7562 74.104 66.0262 74.392C66.2962 74.662 66.4312 74.986 66.4312 75.364C66.4312 75.742 66.2962 76.066 66.0262 76.336C65.7562 76.606 65.4322 76.759 65.0542 76.795C61.8682 77.047 60.2752 78.667 60.2752 81.655V86.461C60.2752 86.875 60.1222 87.235 59.8162 87.541C59.5102 87.847 59.1502 88 58.7362 88H58.0612ZM74.8233 76.201C73.9053 76.201 73.1943 76.462 72.6903 76.984C72.2043 77.488 71.8983 78.307 71.7723 79.441C71.7723 79.585 71.8443 79.657 71.9883 79.657H77.2803C77.4243 79.657 77.4963 79.585 77.4963 79.441C77.4243 77.281 76.5333 76.201 74.8233 76.201ZM75.4983 88.27C73.1403 88.27 71.3223 87.658 70.0443 86.434C68.7843 85.192 68.1543 83.374 68.1543 80.98C68.1543 78.604 68.7213 76.795 69.8553 75.553C70.9893 74.311 72.6273 73.69 74.7693 73.69C78.7653 73.69 80.8173 75.958 80.9253 80.494C80.9433 80.926 80.7903 81.286 80.4663 81.574C80.1423 81.862 79.7643 82.006 79.3323 82.006H71.9613C71.7993 82.006 71.7363 82.087 71.7723 82.249C71.8983 83.455 72.2943 84.337 72.9603 84.895C73.6443 85.435 74.6343 85.705 75.9303 85.705C76.7403 85.705 77.6403 85.57 78.6303 85.3C78.9543 85.21 79.2513 85.264 79.5213 85.462C79.8093 85.66 79.9533 85.93 79.9533 86.272C79.9533 86.686 79.8273 87.055 79.5753 87.379C79.3413 87.685 79.0263 87.874 78.6303 87.946C77.6223 88.162 76.5783 88.27 75.4983 88.27ZM93.8604 88C93.4464 88 93.0864 87.847 92.7804 87.541C92.4744 87.235 92.3214 86.875 92.3214 86.461V75.499C92.3214 75.085 92.4744 74.725 92.7804 74.419C93.0864 74.113 93.4464 73.96 93.8604 73.96H94.5624C94.9764 73.96 95.3364 74.113 95.6424 74.419C95.9484 74.725 96.1014 75.085 96.1014 75.499V86.461C96.1014 86.875 95.9484 87.235 95.6424 87.541C95.3364 87.847 94.9764 88 94.5624 88H93.8604ZM93.8604 70.99C93.4464 70.99 93.0864 70.837 92.7804 70.531C92.4744 70.225 92.3214 69.865 92.3214 69.451V69.289C92.3214 68.875 92.4744 68.515 92.7804 68.209C93.0864 67.903 93.4464 67.75 93.8604 67.75H94.5624C94.9764 67.75 95.3364 67.903 95.6424 68.209C95.9484 68.515 96.1014 68.875 96.1014 69.289V69.451C96.1014 69.865 95.9484 70.225 95.6424 70.531C95.3364 70.837 94.9764 70.99 94.5624 70.99H93.8604ZM105.467 82.33C103.577 81.916 102.227 81.349 101.417 80.629C100.625 79.909 100.229 78.973 100.229 77.821C100.229 76.525 100.706 75.517 101.66 74.797C102.632 74.059 104.063 73.69 105.953 73.69C107.141 73.69 108.32 73.798 109.49 74.014C109.886 74.086 110.201 74.284 110.435 74.608C110.687 74.914 110.813 75.274 110.813 75.688C110.813 76.03 110.678 76.309 110.408 76.525C110.138 76.723 109.832 76.777 109.49 76.687C108.482 76.435 107.42 76.309 106.304 76.309C104.684 76.309 103.874 76.759 103.874 77.659C103.874 78.091 104.027 78.451 104.333 78.739C104.639 79.027 105.161 79.252 105.899 79.414C107.969 79.828 109.382 80.386 110.138 81.088C110.912 81.79 111.299 82.816 111.299 84.166C111.299 85.462 110.813 86.47 109.841 87.19C108.869 87.91 107.456 88.27 105.602 88.27C104.396 88.27 103.163 88.126 101.903 87.838C101.507 87.748 101.183 87.541 100.931 87.217C100.679 86.875 100.553 86.488 100.553 86.056C100.553 85.714 100.688 85.453 100.958 85.273C101.246 85.093 101.552 85.048 101.876 85.138C103.046 85.462 104.153 85.624 105.197 85.624C106.835 85.624 107.654 85.138 107.654 84.166C107.654 83.698 107.492 83.329 107.168 83.059C106.862 82.789 106.295 82.546 105.467 82.33Z" fill="#FFFDFD"/>
<path d="M38.798 129.847C38.154 130.353 37.464 130.422 36.728 130.054C36.038 129.686 35.693 129.088 35.693 128.26V123.223C35.693 120.601 36.751 118.531 38.867 117.013L45.836 111.907C47.906 110.389 50.275 109.63 52.943 109.63H57.29C58.348 109.63 59.268 110.021 60.05 110.803C60.832 111.585 61.223 112.505 61.223 113.563V156.067C61.223 157.125 60.832 158.045 60.05 158.827C59.268 159.609 58.348 160 57.29 160H52.943C51.885 160 50.965 159.609 50.183 158.827C49.401 158.045 49.01 157.125 49.01 156.067V122.533H48.941H48.872L38.798 129.847ZM102.374 121.636C101.086 119.106 99.062 117.841 96.302 117.841C93.542 117.841 91.495 119.106 90.161 121.636C88.873 124.166 88.229 128.559 88.229 134.815C88.229 141.071 88.873 145.464 90.161 147.994C91.495 150.524 93.542 151.789 96.302 151.789C99.062 151.789 101.086 150.524 102.374 147.994C103.708 145.464 104.375 141.071 104.375 134.815C104.375 128.559 103.708 124.166 102.374 121.636ZM111.344 154.618C108.078 158.666 103.064 160.69 96.302 160.69C89.54 160.69 84.503 158.666 81.191 154.618C77.925 150.57 76.292 143.969 76.292 134.815C76.292 125.661 77.925 119.06 81.191 115.012C84.503 110.964 89.54 108.94 96.302 108.94C103.064 108.94 108.078 110.964 111.344 115.012C114.656 119.06 116.312 125.661 116.312 134.815C116.312 143.969 114.656 150.57 111.344 154.618Z" fill="white"/>
</svg>
